<svg width="48" height="48" viewBox="0 0 48 48" fill="none" xmlns="http://www.w3.org/2000/svg">
<path d="M24 4C12.978 4 4 12.978 4 24C4 35.022 12.978 44 24 44C35.022 44 44 35.022 44 24C44 12.978 35.022 4 24 4ZM24 8C32.8602 8 40 15.1398 40 24C40 32.0289 34.1306 38.626 26.4375 39.7969V28.7695H31.0938L31.8242 24.0391H26.4375V21.4531C26.4375 19.4871 27.078 17.7422 28.918 17.7422H31.8711V13.6133C31.3511 13.5433 30.2537 13.3906 28.1797 13.3906C23.8477 13.3906 21.3086 15.6786 21.3086 20.8906V24.0391H16.8555V28.7695H21.3086V39.7578C13.7406 38.4817 8 31.9405 8 24C8 15.1398 15.1398 8 24 8Z" fill="#FFF7F2"/>
</svg>
