<svg width="48" height="48" viewBox="0 0 48 48" fill="none" xmlns="http://www.w3.org/2000/svg">
<path d="M10 6C7.79 6 6 7.79 6 10V38C6 40.21 7.79 42 10 42H38C40.21 42 42 40.21 42 38V10C42 7.79 40.21 6 38 6H10ZM10 10H38V38H10V10ZM15.5586 12.6328C13.8446 12.6328 12.8164 13.6632 12.8164 15.0352C12.8164 16.4072 13.8447 17.4336 15.3867 17.4336C17.1007 17.4336 18.1289 16.4072 18.1289 15.0352C18.1289 13.6632 17.1006 12.6328 15.5586 12.6328ZM12.9531 20V34H18V20H12.9531ZM22.1641 20V34H27.2109V26.3477C27.2109 24.0697 28.8362 23.7422 29.3242 23.7422C29.8122 23.7422 31.1172 24.2317 31.1172 26.3477V34H36V26.3477C36 21.9537 34.0475 20 31.6055 20C29.1635 20 27.8609 20.8131 27.2109 21.9531V20H22.1641Z" fill="#FFF7F2"/>
</svg>
