<svg width="48" height="48" viewBox="0 0 48 48" fill="none" xmlns="http://www.w3.org/2000/svg">
<path d="M12 6C8.71006 6 6 8.71006 6 12V36C6 39.2899 8.71006 42 12 42H36C39.2899 42 42 39.2899 42 36V12C42 8.71006 39.2899 6 36 6H12ZM12 10H36C37.1301 10 38 10.8699 38 12V36C38 37.1301 37.1301 38 36 38H12C10.8699 38 10 37.1301 10 36V12C10 10.8699 10.8699 10 12 10ZM24 14V28C24 29.1301 23.1301 30 22 30C20.8699 30 20 29.1301 20 28C20 26.8699 20.8699 26 22 26V22C18.7101 22 16 24.7101 16 28C16 31.2899 18.7101 34 22 34C25.2899 34 28 31.2899 28 28V20.4648C29.2323 21.3427 30.5182 22 32 22V18C31.9053 18 30.5253 17.5619 29.5625 16.7227C28.5997 15.8834 28 14.83 28 14H24Z" fill="#FFF7F2"/>
</svg>
