<svg width="48" height="48" viewBox="0 0 48 48" fill="none" xmlns="http://www.w3.org/2000/svg">
<path d="M44 7.99902C42.44 8.92502 39.31 10.187 37.47 10.551C37.416 10.565 37.372 10.583 37.32 10.597C35.694 8.99302 33.466 7.99902 31 7.99902C26.03 7.99902 22 12.029 22 16.999C22 17.261 21.978 17.743 22 17.999C15.294 17.999 10.19 14.487 6.53 9.99902C6.132 10.999 5.958 12.579 5.958 14.063C5.958 16.865 8.148 19.617 11.558 21.323C10.93 21.485 10.238 21.601 9.518 21.601C8.356 21.601 7.126 21.295 6 20.367C6 20.401 6 20.433 6 20.469C6 24.385 10.156 27.051 13.852 27.793C13.102 28.235 11.59 28.279 10.852 28.279C10.332 28.279 8.492 28.041 8 27.949C9.028 31.159 12.736 32.963 16.27 33.027C13.506 35.195 11.588 35.999 5.928 35.999H4C7.576 38.291 12.13 40.001 16.694 40.001C31.554 40.001 40 28.675 40 17.999C40 17.827 39.996 17.467 39.99 17.105C39.99 17.069 40 17.035 40 16.999C40 16.945 39.984 16.893 39.984 16.839C39.978 16.567 39.972 16.313 39.966 16.181C41.546 15.041 42.916 13.619 44 11.999C42.55 12.643 40.994 13.075 39.36 13.271C41.028 12.271 43.398 9.88702 44 7.99902ZM36 17.999C36 26.159 30.086 34.797 19.068 35.885C20.56 34.827 22 33.325 22 33.325C22 33.325 16 28.001 15.55 21.045C17.62 21.677 19.776 21.999 22 21.999H26V16.999C26 16.997 26 16.997 26 16.997C26.004 14.237 28.24 12.001 31 12.001C33.762 12.001 36 14.239 36 17.001C36 17.001 36 17.841 36 17.999Z" fill="#FFF7F2"/>
</svg>
