<svg width="209" height="60" viewBox="0 0 209 60" fill="none" xmlns="http://www.w3.org/2000/svg">
<path fill-rule="evenodd" clip-rule="evenodd" d="M97.1891 6.06043C95.516 6.4817 94.0725 8.36472 94.08 10.1162C94.0956 13.748 98.3768 15.8854 101.201 13.6714C101.476 13.4561 101.922 12.9035 102.192 12.4433C102.828 11.3627 102.906 9.37986 102.348 8.51287C101.048 6.49654 99.1122 5.57619 97.1891 6.06043ZM96.606 15.1101C95.6975 15.5887 92.9371 18.5247 91.5346 20.5043C88.9515 24.1501 87.8397 26.5677 88.2699 27.603C88.4714 28.0874 88.4167 28.2446 87.5348 29.7156C87.0111 30.5894 86.5572 31.3343 86.5264 31.3705C86.4955 31.4072 85.8165 31.0613 85.0172 30.6019C84.2183 30.1426 83.4507 29.7668 83.3118 29.7668C82.9463 29.7668 82.6032 30.2158 81.7216 31.847C80.4886 34.1281 79.0609 36.5934 77.9695 38.3255C76.763 40.2406 76.7955 40.4426 78.452 41.3222C79.3417 41.7947 79.5473 41.9833 79.4627 42.2492C79.3106 42.7263 79.8069 43.7958 80.3428 44.1457C81.0033 44.5769 81.8885 44.4356 82.3428 43.8266C82.6181 43.4576 82.7233 43.0266 82.7406 42.1986C82.7621 41.1663 82.8632 40.8967 83.9492 38.9747C84.601 37.8211 85.416 36.4373 85.7602 35.8995C86.1048 35.3619 86.8209 34.1081 87.3522 33.1132C87.8832 32.1184 88.4158 31.1824 88.5359 31.0332C88.656 30.8839 89.0519 30.2734 89.4158 29.6765C89.7799 29.0795 90.3149 28.3624 90.6051 28.083C90.895 27.8037 91.3806 27.1118 91.684 26.5455C92.455 25.1059 94.0628 22.8637 94.2441 22.9754C94.3272 23.0266 94.4544 24.1732 94.5269 25.5235C94.5996 26.8738 94.7822 28.4013 94.9329 28.918C95.3294 30.2778 95.297 30.4529 94.3369 32.1329C93.858 32.9705 93.0218 34.5105 92.4785 35.5551C91.9355 36.5997 91.1452 38.0244 90.7223 38.7206C89.0918 41.4061 88.9189 42.011 89.4317 43.234C89.7527 43.9991 90.1891 44.2378 91.2684 44.2378C92.2848 44.2378 92.7835 43.7925 93.6179 42.1415C93.9152 41.5534 94.4595 40.543 94.8276 39.8965C95.1957 39.2499 96.2286 37.3107 97.1228 35.5874L98.749 32.454L99.1335 32.9415C99.5132 33.4224 103.042 40.4778 103.517 41.7052C104.564 44.4101 106.771 45.2154 107.966 43.3288C108.214 42.9373 108.417 42.3747 108.417 42.0789C108.417 41.4971 104.843 34.3316 103.102 31.4226L102.09 29.7318L102.439 29.1615C102.868 28.4606 102.901 26.6237 102.517 24.883C102.374 24.2362 102.255 23.3604 102.251 22.9369L102.245 22.1663L104.05 23.069C107.714 24.9011 110.595 24.6786 110.595 22.5639C110.595 21.6319 110.056 20.9681 109.088 20.7063C107.186 20.1923 106.18 19.7999 104.995 19.1107C104.294 18.7028 103.613 18.2678 103.481 18.1439C102.86 17.5622 101.052 16.0957 100.457 15.6922C98.9766 14.6876 97.7578 14.5032 96.606 15.1101ZM81.7322 42.4408C81.7322 42.8048 81.3561 43.3332 81.0968 43.3332C80.8377 43.3332 80.4616 42.8048 80.4616 42.4408C80.4616 42.3347 80.7475 42.2479 81.0968 42.2479C81.4463 42.2479 81.7322 42.3347 81.7322 42.4408Z" fill="#FFF7F2"/>
<path d="M112.429 18.1251L110.872 17.5314C110.633 17.4401 110.366 17.5686 110.29 17.8115L108.483 23.5932C108.422 23.7886 108.504 23.9998 108.683 24.1029L110.218 24.9926C110.466 25.1363 110.784 25.0117 110.866 24.7385L112.694 18.6609C112.76 18.4409 112.644 18.2075 112.429 18.1251Z" fill="#FFF7F2" stroke="#FFF7F2"/>
<path d="M18.6172 44.8789C15.1597 44.8789 12.1899 44.2196 9.70757 42.9009C7.22528 41.5822 5.31923 39.7213 3.98943 37.3185C2.68918 34.9156 2.03906 32.1024 2.03906 28.8789C2.03906 26.476 2.40846 24.2927 3.14723 22.3294C3.91556 20.3661 5.00895 18.6811 6.4274 17.2745C7.87539 15.8679 9.61891 14.7983 11.6579 14.0657C13.7265 13.3038 16.0463 12.9229 18.6172 12.9229C19.9766 12.9229 21.3803 13.084 22.8282 13.4064C24.3059 13.6994 25.606 14.1536 26.729 14.769C27.5563 15.2086 28.1326 15.7653 28.4577 16.4393C28.7829 17.1133 28.8861 17.802 28.768 18.5053C28.6794 19.2086 28.4283 19.8386 28.0145 20.3954C27.6007 20.9521 27.0688 21.3331 26.4187 21.5382C25.7687 21.7141 25.0594 21.6115 24.291 21.2305C23.4045 20.8203 22.518 20.5126 21.6314 20.3075C20.7744 20.073 19.8731 19.9558 18.9275 19.9558C17.0953 19.9558 15.5587 20.3075 14.3175 21.0108C13.1059 21.6848 12.1899 22.6811 11.5693 23.9998C10.9487 25.3185 10.6384 26.9448 10.6384 28.8789C10.6384 30.813 10.9487 32.4541 11.5693 33.802C12.1899 35.1207 13.1059 36.1316 14.3175 36.8349C15.5587 37.509 17.0953 37.8459 18.9275 37.8459C19.6958 37.8459 20.5233 37.758 21.4098 37.5822C22.2963 37.3771 23.168 37.0694 24.0251 36.6591C24.9116 36.2782 25.6946 36.1756 26.3744 36.3514C27.0836 36.5272 27.645 36.8789 28.0588 37.4064C28.5021 37.9338 28.7829 38.5492 28.901 39.2525C29.0191 39.9266 28.9158 40.6004 28.5907 41.2745C28.2953 41.9486 27.7634 42.4905 26.995 42.9009C25.9606 43.5163 24.6751 43.9998 23.1385 44.3514C21.6314 44.7031 20.1243 44.8789 18.6172 44.8789ZM40.3729 44.8789C38.4818 44.8789 36.9303 44.542 35.7187 43.8679C34.507 43.1646 33.591 42.1244 32.9704 40.747C32.3793 39.3697 32.0839 37.6262 32.0839 35.5163V26.2855C32.0839 24.996 32.4236 24.029 33.1034 23.3844C33.7831 22.7103 34.7583 22.3734 36.0289 22.3734C37.2996 22.3734 38.2747 22.7103 38.9545 23.3844C39.6342 24.029 39.974 24.996 39.974 26.2855V35.736C39.974 36.791 40.1956 37.5822 40.6389 38.1097C41.0822 38.6371 41.7766 38.9009 42.7223 38.9009C43.7861 38.9009 44.6578 38.52 45.3375 37.758C46.0173 36.996 46.357 35.985 46.357 34.725V26.2855C46.357 24.996 46.6968 24.029 47.3766 23.3844C48.0563 22.7103 49.0315 22.3734 50.3021 22.3734C51.5727 22.3734 52.5479 22.7103 53.2277 23.3844C53.9074 24.029 54.2472 24.996 54.2472 26.2855V40.8349C54.2472 43.4723 52.9766 44.791 50.4351 44.791C49.1939 44.791 48.2336 44.4541 47.5539 43.78C46.8741 43.1059 46.5343 42.1244 46.5343 40.8349V38.2855L47.2436 40.4393C46.5935 41.8752 45.6773 42.9741 44.4953 43.736C43.3428 44.498 41.9687 44.8789 40.3729 44.8789ZM67.1278 44.8789C64.2909 44.8789 62.1927 44.1316 60.8334 42.6371C59.5036 41.1134 58.8387 38.8277 58.8387 35.78V16.9668C58.8387 15.6774 59.1785 14.6958 59.8583 14.0218C60.538 13.3478 61.4983 13.0108 62.7395 13.0108C64.0101 13.0108 64.9853 13.3478 65.6651 14.0218C66.3743 14.6958 66.7289 15.6774 66.7289 16.9668V35.5163C66.7289 36.6004 66.9357 37.3916 67.3495 37.8899C67.7927 38.3881 68.3541 38.6371 69.0339 38.6371C69.2407 38.6371 69.4477 38.6224 69.6544 38.5932C69.8909 38.5345 70.142 38.4905 70.408 38.4613C70.9104 38.4613 71.2797 38.6519 71.5162 39.0327C71.7821 39.4136 71.9151 40.1903 71.9151 41.3624C71.9151 42.3881 71.7083 43.1646 71.2945 43.6921C70.8807 44.1903 70.2455 44.5125 69.3885 44.6591C69.152 44.6883 68.8122 44.7323 68.369 44.791C67.9257 44.8497 67.5119 44.8789 67.1278 44.8789Z" fill="#FFF7F2"/>
<path d="M130.187 44.7909C128.887 44.7909 127.882 44.4392 127.173 43.7359C126.464 43.0034 126.109 41.9924 126.109 40.703V19.9997H119.15C118.057 19.9997 117.215 19.7213 116.623 19.1645C116.062 18.5784 115.781 17.7579 115.781 16.703C115.781 15.6187 116.062 14.7982 116.623 14.2414C117.215 13.6846 118.057 13.4062 119.15 13.4062H141.225C142.318 13.4062 143.146 13.6846 143.707 14.2414C144.298 14.7982 144.594 15.6187 144.594 16.703C144.594 17.7579 144.298 18.5784 143.707 19.1645C143.146 19.7213 142.318 19.9997 141.225 19.9997H134.265V40.703C134.265 41.9924 133.926 43.0034 133.246 43.7359C132.566 44.4392 131.547 44.7909 130.187 44.7909ZM147.273 44.7909C145.973 44.7909 144.968 44.4539 144.259 43.7799C143.579 43.1058 143.24 42.1243 143.24 40.8348V26.2854C143.24 25.0254 143.564 24.0583 144.215 23.3843C144.894 22.7102 145.855 22.3733 147.096 22.3733C148.337 22.3733 149.283 22.7102 149.933 23.3843C150.583 24.0583 150.908 25.0254 150.908 26.2854V28.0876H150.465C150.76 26.3293 151.514 24.9375 152.725 23.9117C153.967 22.886 155.503 22.3441 157.335 22.2854C158.192 22.2561 158.828 22.4759 159.242 22.9447C159.685 23.3843 159.921 24.2194 159.951 25.4502C159.951 26.5052 159.729 27.3403 159.286 27.9557C158.843 28.5711 158 28.9375 156.759 29.0546L155.74 29.1425C154.173 29.2891 153.036 29.7287 152.327 30.4612C151.617 31.1645 151.263 32.2194 151.263 33.626V40.8348C151.263 42.1243 150.923 43.1058 150.243 43.7799C149.563 44.4539 148.573 44.7909 147.273 44.7909ZM169.823 44.8788C168.138 44.8788 166.646 44.5711 165.346 43.9557C164.075 43.3403 163.07 42.5052 162.332 41.4502C161.622 40.366 161.268 39.1353 161.268 37.7579C161.268 36.1755 161.681 34.93 162.509 34.0216C163.336 33.1133 164.666 32.4685 166.498 32.0876C168.33 31.6772 170.768 31.4722 173.812 31.4722H176.25V35.1645H173.812C172.66 35.1645 171.699 35.2524 170.931 35.4282C170.192 35.5748 169.645 35.8238 169.291 36.1755C168.936 36.4979 168.759 36.9227 168.759 37.4502C168.759 38.1243 168.995 38.681 169.468 39.1205C169.97 39.5601 170.68 39.7799 171.596 39.7799C172.334 39.7799 172.985 39.6188 173.546 39.2964C174.137 38.9739 174.61 38.5344 174.965 37.9777C175.319 37.3915 175.497 36.7177 175.497 35.9557V30.8568C175.497 29.8019 175.216 29.0546 174.654 28.615C174.122 28.1755 173.192 27.9557 171.862 27.9557C171.152 27.9557 170.355 28.0436 169.468 28.2194C168.582 28.366 167.592 28.6443 166.498 29.0546C165.7 29.3476 165.021 29.3915 164.459 29.1865C163.898 28.9814 163.454 28.6298 163.129 28.1315C162.834 27.6333 162.686 27.0913 162.686 26.5052C162.716 25.919 162.908 25.3623 163.262 24.8348C163.646 24.3074 164.223 23.897 164.991 23.6041C166.41 23.0766 167.71 22.7249 168.892 22.5491C170.103 22.3733 171.211 22.2854 172.216 22.2854C174.639 22.2854 176.634 22.637 178.2 23.3403C179.796 24.0144 180.978 25.0693 181.747 26.5052C182.544 27.9117 182.943 29.7287 182.943 31.9557V40.8348C182.943 42.1243 182.633 43.1058 182.013 43.7799C181.392 44.4539 180.491 44.7909 179.309 44.7909C178.097 44.7909 177.166 44.4539 176.516 43.7799C175.895 43.1058 175.585 42.1243 175.585 40.8348V39.692L175.851 40.3074C175.703 41.2452 175.364 42.0509 174.832 42.7249C174.3 43.399 173.605 43.9265 172.748 44.3074C171.891 44.6882 170.916 44.8788 169.823 44.8788ZM196.883 44.7909C195.849 44.7909 194.962 44.5419 194.223 44.0436C193.514 43.5161 192.923 42.7397 192.45 41.7139L186.112 27.3403C185.757 26.4612 185.639 25.6408 185.757 24.8788C185.875 24.1168 186.245 23.5161 186.865 23.0766C187.515 22.6078 188.402 22.3733 189.525 22.3733C190.47 22.3733 191.224 22.5931 191.785 23.0326C192.377 23.443 192.908 24.2634 193.381 25.4942L197.858 36.9227H196.351L201.05 25.4502C201.522 24.2487 202.054 23.443 202.645 23.0326C203.237 22.5931 204.049 22.3733 205.083 22.3733C205.97 22.3733 206.679 22.6078 207.211 23.0766C207.772 23.5161 208.112 24.1168 208.231 24.8788C208.349 25.6408 208.201 26.4612 207.787 27.3403L201.316 41.7579C200.872 42.7836 200.281 43.5454 199.543 44.0436C198.833 44.5419 197.947 44.7909 196.883 44.7909Z" fill="#FFF7F2"/>
</svg>
